<?xml version="1.0" encoding="UTF-8" standalone="no"?>
<svg
   width="60mm"
   height="60mm"
   viewBox="0 0 60 60"
   version="1.1"
   id="svg867"
   inkscape:version="1.1.2 (b8e25be833, 2022-02-05)"
   sodipodi:docname="logo.svg"
   inkscape:export-filename="C:\Users\Seiichi Shinomiya\Downloads\bitmap.png"
   inkscape:export-xdpi="65.024002"
   inkscape:export-ydpi="65.024002"
   xmlns:inkscape="http://www.inkscape.org/namespaces/inkscape"
   xmlns:sodipodi="http://sodipodi.sourceforge.net/DTD/sodipodi-0.dtd"
   xmlns="http://www.w3.org/2000/svg"
   xmlns:svg="http://www.w3.org/2000/svg"
   xmlns:rdf="http://www.w3.org/1999/02/22-rdf-syntax-ns#"
   xmlns:cc="http://creativecommons.org/ns#"
   xmlns:dc="http://purl.org/dc/elements/1.1/">
  <defs
     id="defs861">
    <inkscape:perspective
       sodipodi:type="inkscape:persp3d"
       inkscape:vp_x="12.828938 : 14.276312 : 1"
       inkscape:vp_y="0 : 1000 : 0"
       inkscape:vp_z="34.632003 : 48.764381 : 1"
       inkscape:persp3d-origin="25 : 26.666667 : 1"
       id="perspective7035" />
    <filter
       style="color-interpolation-filters:sRGB"
       inkscape:label="Drop Shadow"
       id="filter49635"
       x="-0.16826732"
       y="-0.16826732"
       width="1.3818867"
       height="1.3818867">
      <feFlood
         flood-opacity="0.498039"
         flood-color="rgb(0,0,0)"
         result="flood"
         id="feFlood49625" />
      <feComposite
         in="flood"
         in2="SourceGraphic"
         operator="in"
         result="composite1"
         id="feComposite49627" />
      <feGaussianBlur
         in="composite1"
         stdDeviation="3"
         result="blur"
         id="feGaussianBlur49629" />
      <feOffset
         dx="2"
         dy="2"
         result="offset"
         id="feOffset49631" />
      <feComposite
         in="SourceGraphic"
         in2="offset"
         operator="over"
         result="fbSourceGraphic"
         id="feComposite49633" />
      <feColorMatrix
         result="fbSourceGraphicAlpha"
         in="fbSourceGraphic"
         values="0 0 0 -1 0 0 0 0 -1 0 0 0 0 -1 0 0 0 0 1 0"
         id="feColorMatrix50873" />
      <feFlood
         id="feFlood50875"
         flood-opacity="0.498039"
         flood-color="rgb(0,0,0)"
         result="flood"
         in="fbSourceGraphic" />
      <feComposite
         in2="fbSourceGraphic"
         id="feComposite50877"
         in="flood"
         operator="out"
         result="composite1" />
      <feGaussianBlur
         id="feGaussianBlur50879"
         in="composite1"
         stdDeviation="0"
         result="blur" />
      <feOffset
         id="feOffset50881"
         dx="0"
         dy="0"
         result="offset" />
      <feComposite
         in2="fbSourceGraphic"
         id="feComposite50883"
         operator="atop"
         result="composite2" />
    </filter>
    <filter
       style="color-interpolation-filters:sRGB"
       inkscape:label="Drop Shadow"
       id="filter51656"
       x="-0.05442242"
       y="-0.05442242"
       width="1.1088448"
       height="1.1201828">
      <feFlood
         flood-opacity="0.498039"
         flood-color="rgb(0,0,0)"
         result="flood"
         id="feFlood51646" />
      <feComposite
         in="flood"
         in2="SourceGraphic"
         operator="in"
         result="composite1"
         id="feComposite51648" />
      <feGaussianBlur
         in="composite1"
         stdDeviation="1"
         result="blur"
         id="feGaussianBlur51650" />
      <feOffset
         dx="-2.77556e-17"
         dy="0.5"
         result="offset"
         id="feOffset51652" />
      <feComposite
         in="SourceGraphic"
         in2="offset"
         operator="over"
         result="composite2"
         id="feComposite51654" />
    </filter>
    <filter
       style="color-interpolation-filters:sRGB"
       inkscape:label="Drop Shadow"
       id="filter51656-0"
       x="-0.059422482"
       y="-0.059422482"
       width="1.118845"
       height="1.130183">
      <feFlood
         flood-opacity="0.498039"
         flood-color="rgb(0,0,0)"
         result="flood"
         id="feFlood51646-8" />
      <feComposite
         in="flood"
         in2="SourceGraphic"
         operator="in"
         result="composite1"
         id="feComposite51648-0" />
      <feGaussianBlur
         in="composite1"
         stdDeviation="1"
         result="blur"
         id="feGaussianBlur51650-8" />
      <feOffset
         dx="-2.77556e-17"
         dy="0.5"
         result="offset"
         id="feOffset51652-3" />
      <feComposite
         in="SourceGraphic"
         in2="offset"
         operator="over"
         result="composite2"
         id="feComposite51654-6" />
    </filter>
    <filter
       style="color-interpolation-filters:sRGB"
       inkscape:label="Drop Shadow"
       id="filter51656-9"
       x="-0.059422482"
       y="-0.059422482"
       width="1.118845"
       height="1.130183">
      <feFlood
         flood-opacity="0.498039"
         flood-color="rgb(0,0,0)"
         result="flood"
         id="feFlood51646-7" />
      <feComposite
         in="flood"
         in2="SourceGraphic"
         operator="in"
         result="composite1"
         id="feComposite51648-4" />
      <feGaussianBlur
         in="composite1"
         stdDeviation="1"
         result="blur"
         id="feGaussianBlur51650-7" />
      <feOffset
         dx="-2.77556e-17"
         dy="0.5"
         result="offset"
         id="feOffset51652-1" />
      <feComposite
         in="SourceGraphic"
         in2="offset"
         operator="over"
         result="composite2"
         id="feComposite51654-9" />
    </filter>
    <filter
       style="color-interpolation-filters:sRGB"
       inkscape:label="Drop Shadow"
       id="filter51656-7"
       x="-0.05442242"
       y="-0.05442242"
       width="1.1088448"
       height="1.1201828">
      <feFlood
         flood-opacity="0.498039"
         flood-color="rgb(0,0,0)"
         result="flood"
         id="feFlood51646-4" />
      <feComposite
         in="flood"
         in2="SourceGraphic"
         operator="in"
         result="composite1"
         id="feComposite51648-9" />
      <feGaussianBlur
         in="composite1"
         stdDeviation="1"
         result="blur"
         id="feGaussianBlur51650-1" />
      <feOffset
         dx="-2.77556e-17"
         dy="0.5"
         result="offset"
         id="feOffset51652-8" />
      <feComposite
         in="SourceGraphic"
         in2="offset"
         operator="over"
         result="composite2"
         id="feComposite51654-97" />
    </filter>
    <filter
       style="color-interpolation-filters:sRGB"
       inkscape:label="Drop Shadow"
       id="filter52181"
       x="-0.08163363"
       y="-0.08163363"
       width="1.1632673"
       height="1.1768729">
      <feFlood
         flood-opacity="0.498039"
         flood-color="rgb(0,0,0)"
         result="flood"
         id="feFlood52171" />
      <feComposite
         in="flood"
         in2="SourceGraphic"
         operator="in"
         result="composite1"
         id="feComposite52173" />
      <feGaussianBlur
         in="composite1"
         stdDeviation="1.5"
         result="blur"
         id="feGaussianBlur52175" />
      <feOffset
         dx="-2.77556e-17"
         dy="0.6"
         result="offset"
         id="feOffset52177" />
      <feComposite
         in="SourceGraphic"
         in2="offset"
         operator="over"
         result="composite2"
         id="feComposite52179" />
    </filter>
    <filter
       style="color-interpolation-filters:sRGB"
       inkscape:label="Drop Shadow"
       id="filter52211"
       x="-0.08163363"
       y="-0.08163363"
       width="1.1632673"
       height="1.1859433">
      <feFlood
         flood-opacity="0.498039"
         flood-color="rgb(0,0,0)"
         result="flood"
         id="feFlood52201" />
      <feComposite
         in="flood"
         in2="SourceGraphic"
         operator="in"
         result="composite1"
         id="feComposite52203" />
      <feGaussianBlur
         in="composite1"
         stdDeviation="1.5"
         result="blur"
         id="feGaussianBlur52205" />
      <feOffset
         dx="-2.77556e-17"
         dy="1"
         result="offset"
         id="feOffset52207" />
      <feComposite
         in="SourceGraphic"
         in2="offset"
         operator="over"
         result="composite2"
         id="feComposite52209" />
    </filter>
    <filter
       style="color-interpolation-filters:sRGB"
       inkscape:label="Drop Shadow"
       id="filter51656-4"
       x="-0.05442242"
       y="-0.05442242"
       width="1.1088448"
       height="1.1201828">
      <feFlood
         flood-opacity="0.498039"
         flood-color="rgb(0,0,0)"
         result="flood"
         id="feFlood51646-0" />
      <feComposite
         in="flood"
         in2="SourceGraphic"
         operator="in"
         result="composite1"
         id="feComposite51648-5" />
      <feGaussianBlur
         in="composite1"
         stdDeviation="1"
         result="blur"
         id="feGaussianBlur51650-0" />
      <feOffset
         dx="-2.77556e-17"
         dy="0.5"
         result="offset"
         id="feOffset51652-9" />
      <feComposite
         in="SourceGraphic"
         in2="offset"
         operator="over"
         result="composite2"
         id="feComposite51654-96" />
    </filter>
    <filter
       style="color-interpolation-filters:sRGB"
       inkscape:label="Drop Shadow"
       id="filter51656-48"
       x="-0.05442242"
       y="-0.05442242"
       width="1.1088448"
       height="1.1201828">
      <feFlood
         flood-opacity="0.498039"
         flood-color="rgb(0,0,0)"
         result="flood"
         id="feFlood51646-5" />
      <feComposite
         in="flood"
         in2="SourceGraphic"
         operator="in"
         result="composite1"
         id="feComposite51648-2" />
      <feGaussianBlur
         in="composite1"
         stdDeviation="1"
         result="blur"
         id="feGaussianBlur51650-82" />
      <feOffset
         dx="-2.77556e-17"
         dy="0.5"
         result="offset"
         id="feOffset51652-2" />
      <feComposite
         in="SourceGraphic"
         in2="offset"
         operator="over"
         result="composite2"
         id="feComposite51654-63" />
    </filter>
  </defs>
  <sodipodi:namedview
     id="base"
     pagecolor="#ffffff"
     bordercolor="#666666"
     borderopacity="1.0"
     inkscape:pageopacity="0.0"
     inkscape:pageshadow="2"
     inkscape:zoom="1"
     inkscape:cx="132"
     inkscape:cy="95"
     inkscape:document-units="mm"
     inkscape:current-layer="layer1"
     inkscape:document-rotation="0"
     showgrid="false"
     fit-margin-top="0"
     fit-margin-left="0"
     fit-margin-right="0"
     fit-margin-bottom="0"
     inkscape:window-width="1920"
     inkscape:window-height="1017"
     inkscape:window-x="-8"
     inkscape:window-y="-8"
     inkscape:window-maximized="1"
     inkscape:snap-object-midpoints="true"
     inkscape:snap-center="true"
     inkscape:pagecheckerboard="0"
     inkscape:snap-page="true"
     inkscape:snap-intersection-paths="true"
     inkscape:snap-bbox="true"
     inkscape:snap-bbox-edge-midpoints="true"
     inkscape:bbox-nodes="true"
     inkscape:snap-nodes="false"
     inkscape:snap-grids="true"
     width="60mm"
     height="60mm"
     inkscape:snap-bbox-midpoints="true" />
  <metadata
     id="metadata864">
    <rdf:RDF>
      <cc:Work
         rdf:about="">
        <dc:format>image/svg+xml</dc:format>
        <dc:type
           rdf:resource="http://purl.org/dc/dcmitype/StillImage" />
      </cc:Work>
    </rdf:RDF>
  </metadata>
  <g
     inkscape:label="レイヤー 1"
     inkscape:groupmode="layer"
     id="layer1"
     transform="translate(-43.750186,-81.306629)">
    <rect
       style="fill:#ffffff;fill-opacity:1;stroke:none;stroke-width:0.441;stroke-miterlimit:4;stroke-dasharray:none;stroke-opacity:1;filter:url(#filter52211)"
       id="rect51456-8"
       width="44.099472"
       height="44.099472"
       x="-26.007156"
       y="69.814041"
       transform="matrix(1.1695981,0,0,1.1472442,78.378895,5.3426894)"
       ry="11.752331"
       inkscape:export-filename="C:\Users\ootid\Downloads\16px.png"
       inkscape:export-xdpi="6.7733603"
       inkscape:export-ydpi="6.7733603" />
    <g
       aria-label="アイコン
募集中"
       id="text842-7"
       style="font-size:11.9944px;line-height:1.25;stroke-width:0.1">
      <path
         d="m 54.844091,97.969718 c 0,0.665693 0.32632,0.992013 0.992013,0.992013 h 4.973116 c 0.430743,-0.01305 0.626535,0.208845 0.561271,0.678746 -0.05221,0.509063 -0.678746,1.383593 -1.30528,1.788233 -0.430743,0.31327 -0.496007,0.77012 -0.208845,1.35749 0.32632,0.50906 0.796221,0.56127 1.409702,0.15664 0.874538,-0.58738 1.775181,-1.87961 2.192871,-3.237099 0.417689,-1.592442 -0.313267,-2.714983 -1.72297,-2.741088 h -5.899865 c -0.665693,0 -0.992013,0.32632 -0.992013,0.992012 z m -0.05221,8.680112 c 0.208844,0.60043 0.639587,0.77012 1.30528,0.52211 1.318332,-0.67874 2.153712,-1.51412 2.793299,-2.97604 0.32632,-0.73095 0.509059,-1.6316 0.522112,-2.68887 v -0.30022 c 0,-0.65264 -0.32632,-0.97896 -0.992013,-0.97896 -0.65264,0 -0.97896,0.32632 -0.97896,0.97896 v 0.2219 c -0.01305,1.70992 -0.535165,2.7933 -1.266122,3.36762 -0.32632,0.26106 -0.65264,0.4438 -0.965907,0.54822 -0.456848,0.20885 -0.600429,0.63959 -0.417689,1.30528 z"
         style="font-weight:bold;font-size:13.0528px;font-family:'Corporate Logo Rounded ver2';-inkscape-font-specification:'Corporate Logo Rounded ver2 Bold';text-align:center;text-anchor:middle"
         id="path887" />
      <path
         d="m 72.843901,98.139405 c 0.313267,-0.50906 0.169686,-0.939802 -0.41769,-1.30528 -0.626534,-0.221898 -1.083382,-0.117476 -1.357491,0.313267 -0.939802,1.657705 -2.519191,3.197938 -3.941946,4.072478 -0.678745,0.41769 -1.279174,0.73095 -1.801286,0.9398 -0.535165,0.248 -0.691799,0.74401 -0.469901,1.46191 0.274109,0.48295 0.678746,0.60043 1.200858,0.36548 1.135593,-0.56127 2.036236,-1.12254 2.701929,-1.65771 v 4.24216 c 0,0.6918 0.339373,1.03117 1.031171,1.03117 0.691799,0 1.031172,-0.33937 1.031172,-1.03117 v -5.8346 c 0.952854,-1.096433 1.435808,-1.696862 2.023184,-2.597505 z"
         style="font-weight:bold;font-size:13.0528px;font-family:'Corporate Logo Rounded ver2';-inkscape-font-specification:'Corporate Logo Rounded ver2 Bold';text-align:center;text-anchor:middle"
         id="path889" />
      <path
         d="m 74.632146,98.348249 c 0,0.678746 0.339373,1.018119 1.018119,1.018119 h 4.098579 c 0.522112,0 0.783168,0.261056 0.783168,0.783172 v 3.88973 c 0,0.52211 -0.261056,0.78317 -0.783168,0.78317 h -4.098579 c -0.678746,0 -1.018119,0.33937 -1.018119,1.03117 0,0.67875 0.339373,1.01812 1.018119,1.01812 h 4.659849 c 1.566336,0 2.349504,-0.78317 2.349504,-2.34951 v -4.855638 c 0,-1.566336 -0.783168,-2.349504 -2.349504,-2.349504 h -4.659849 c -0.678746,0 -1.018119,0.339373 -1.018119,1.018119 z"
         style="font-weight:bold;font-size:13.0528px;font-family:'Corporate Logo Rounded ver2';-inkscape-font-specification:'Corporate Logo Rounded ver2 Bold';text-align:center;text-anchor:middle"
         id="path891" />
      <path
         d="m 84.395644,98.204669 c 0,0.678745 0.339373,1.018118 1.018119,1.018118 h 2.245081 c 0.678746,0 1.018119,-0.339373 1.018119,-1.018118 0,-0.678746 -0.339373,-1.018119 -1.018119,-1.018119 h -2.245081 c -0.678746,0 -1.018119,0.339373 -1.018119,1.018119 z m 0.117475,8.027471 c 0.169687,0.66569 0.548218,0.95286 1.148647,0.83538 1.997078,-0.43074 3.289305,-1.09644 4.24216,-2.01013 0.469901,-0.45685 0.952854,-1.03117 1.448861,-1.72297 0.665693,-0.95286 1.122541,-1.82739 1.357491,-2.63667 0.195792,-0.56127 0.01305,-0.978957 -0.574323,-1.253065 -0.613482,-0.143581 -1.031171,0.03916 -1.253069,0.574325 -0.469901,1.47496 -1.527178,2.91077 -2.871616,3.955 -0.65264,0.50906 -1.540231,0.86148 -2.662771,1.05727 -0.639588,0.11748 -0.926749,0.50906 -0.83538,1.20086 z"
         style="font-weight:bold;font-size:13.0528px;font-family:'Corporate Logo Rounded ver2';-inkscape-font-specification:'Corporate Logo Rounded ver2 Bold';text-align:center;text-anchor:middle"
         id="path893" />
      <path
         d="m 58.126876,114.7594 h 1.240016 c 0.09137,0 0.156634,-0.0261 0.208845,-0.0914 0.06526,-0.0522 0.09137,-0.11748 0.09137,-0.20885 0,-0.0261 0.01305,-0.0392 0.02611,-0.0392 h 2.388663 c 0.02611,0 0.03916,0.0131 0.03916,0.0392 0,0.0914 0.02611,0.15664 0.09137,0.20885 0.05221,0.0653 0.117475,0.0914 0.208844,0.0914 h 1.266122 c 0.09137,0 0.156634,-0.0261 0.208845,-0.0914 0.06526,-0.0522 0.09137,-0.11748 0.09137,-0.20885 0,-0.0261 0.01305,-0.0392 0.02611,-0.0392 h 1.892656 c 0.195792,0 0.378531,-0.0783 0.522112,-0.22189 0.143581,-0.14358 0.208845,-0.31327 0.208845,-0.52212 0,-0.20884 -0.06526,-0.37853 -0.208845,-0.50906 -0.143581,-0.14358 -0.32632,-0.22189 -0.522112,-0.22189 h -1.853498 c -0.03916,0 -0.06526,-0.0131 -0.06526,-0.0522 0,-0.15664 -0.05221,-0.28717 -0.156633,-0.39159 -0.104423,-0.10442 -0.234951,-0.15663 -0.391584,-0.15663 h -0.783168 c -0.143581,0 -0.274109,0.0522 -0.378531,0.15663 -0.104423,0.10442 -0.156634,0.23495 -0.156634,0.39159 0,0.0392 -0.02611,0.0522 -0.06526,0.0522 h -2.323398 c -0.03916,0 -0.06526,-0.0131 -0.06526,-0.0522 0,-0.15664 -0.05221,-0.28717 -0.156634,-0.39159 -0.104422,-0.10442 -0.23495,-0.15663 -0.391584,-0.15663 h -0.74401 c -0.156633,0 -0.287161,0.0522 -0.391584,0.15663 -0.104422,0.10442 -0.156633,0.23495 -0.156633,0.39159 0,0.0392 -0.02611,0.0522 -0.06526,0.0522 H 55.9079 c -0.195792,0 -0.378531,0.0783 -0.522112,0.22189 -0.143581,0.13053 -0.208845,0.30022 -0.208845,0.50906 0,0.20885 0.06526,0.37854 0.208845,0.52212 0.143581,0.14358 0.32632,0.22189 0.522112,0.22189 h 1.892656 c 0.01305,0 0.02611,0.0131 0.02611,0.0392 0,0.0914 0.02611,0.15664 0.09137,0.20885 0.05221,0.0653 0.117476,0.0914 0.208845,0.0914 z m -3.119619,4.98617 c 0,0.20884 0.06526,0.37853 0.208845,0.50906 0.143581,0.14358 0.32632,0.22189 0.522112,0.22189 h 0.796221 c 0.01305,0 0.02611,0.0131 0.02611,0.0261 0.01305,0.0131 0.01305,0.0261 0,0.0392 -0.352425,0.19579 -0.757062,0.37853 -1.187805,0.53516 -0.182739,0.0783 -0.300214,0.20885 -0.339372,0.39159 -0.01305,0.0391 -0.01305,0.0783 -0.01305,0.14358 0,0.13052 0.03916,0.248 0.130528,0.36547 0.143581,0.1958 0.339373,0.33938 0.574323,0.41769 0.07832,0.0392 0.182739,0.0522 0.313267,0.0522 0.117475,0 0.234951,-0.0261 0.365479,-0.0653 0.14358,-0.0653 0.352425,-0.15663 0.613481,-0.28716 0.02611,-0.0261 0.03916,-0.0131 0.03916,0.0261 0,0.10442 0.03916,0.19579 0.117475,0.2741 0.07832,0.0783 0.169686,0.11748 0.274109,0.11748 h 1.240016 l 0.03916,0.0261 c 0.01305,0.013 0,0.0391 -0.01305,0.0522 -0.404637,0.27411 -1.018118,0.48295 -1.814339,0.63958 -0.195792,0.0392 -0.313267,0.15664 -0.378531,0.32632 -0.02611,0.0653 -0.03916,0.14358 -0.03916,0.20885 0,0.10442 0.02611,0.19579 0.09137,0.28716 0.130528,0.2219 0.313267,0.39158 0.535165,0.49601 0.143581,0.0783 0.300214,0.11747 0.443795,0.11747 0.07832,0 0.156634,-0.0131 0.23495,-0.0392 0.861485,-0.20884 1.540231,-0.48295 2.04929,-0.80927 0.509059,-0.32632 0.88759,-0.73096 1.148646,-1.18781 0.02611,-0.0783 0.09137,-0.11747 0.18274,-0.11747 h 1.579388 c 0.03916,0 0.05221,0.0131 0.06526,0.0392 0.01305,0.0131 0.02611,0.0522 0.02611,0.0914 -0.05221,0.26105 -0.117475,0.43074 -0.195792,0.50906 -0.104422,0.0783 -0.23495,0.11747 -0.404637,0.11747 -0.169686,0 -0.300214,0 -0.391584,-0.013 h -0.02611 c -0.143581,0 -0.274109,0.0653 -0.365479,0.20884 -0.06526,0.0914 -0.104422,0.1958 -0.104422,0.30022 l 0.02611,0.15663 c 0.06526,0.2219 0.18274,0.40464 0.352426,0.54822 0.169686,0.14358 0.352426,0.2219 0.548218,0.2219 h 0.01305 c 0.404637,-0.0131 0.665693,-0.0392 0.809274,-0.0522 0.456848,-0.0392 0.796221,-0.18274 1.044224,-0.43075 0.248003,-0.27411 0.430742,-0.90064 0.535165,-1.8796 0,-0.0392 0.01305,-0.0522 0.03916,-0.0653 l 0.09137,-0.0131 c 0.143581,0.0914 0.287161,0.16969 0.430742,0.23495 0.169687,0.0653 0.313267,0.0914 0.430743,0.0914 0.06526,0 0.182739,-0.013 0.352425,-0.0522 0.261056,-0.0914 0.469901,-0.248 0.639587,-0.4699 0.09137,-0.10442 0.143581,-0.23495 0.143581,-0.37853 0,-0.0522 -0.01305,-0.11747 -0.02611,-0.18274 -0.05221,-0.19579 -0.18274,-0.33937 -0.391584,-0.41769 -0.469901,-0.14358 -0.900644,-0.32632 -1.292228,-0.54822 0,0 0,0 0,-0.013 v -0.0131 c 0,-0.013 0.01305,-0.0261 0.02611,-0.0261 h 0.965907 c 0.195792,0 0.378531,-0.0783 0.522112,-0.22189 0.143581,-0.13053 0.208845,-0.30022 0.208845,-0.50906 0,-0.1958 -0.06526,-0.36548 -0.208845,-0.50906 -0.156633,-0.14358 -0.32632,-0.20885 -0.522112,-0.20885 h -5.691021 c -0.02611,0 -0.05221,-0.013 -0.06526,-0.0392 -0.01305,-0.0392 -0.02611,-0.0653 -0.01305,-0.0783 l 0.05221,-0.0783 c 0.03916,-0.0783 0.104422,-0.11748 0.182739,-0.11748 h 3.863629 c 0.313267,0 0.574323,-0.10442 0.783168,-0.32632 0.221897,-0.23495 0.32632,-0.496 0.32632,-0.78316 v -1.54023 c 0,-0.30022 -0.104423,-0.56127 -0.32632,-0.78317 -0.208845,-0.2219 -0.469901,-0.32632 -0.783168,-0.32632 h -6.957143 c -0.300214,0 -0.56127,0.10442 -0.783168,0.32632 -0.221897,0.2219 -0.32632,0.48295 -0.32632,0.78317 v 1.54023 c 0,0.28716 0.104423,0.54821 0.32632,0.78316 0.221898,0.2219 0.482954,0.32632 0.783168,0.32632 h 0.887591 c 0.02611,0 0.03916,0.0131 0.05221,0.0392 0.01305,0.0261 0.01305,0.0522 0,0.0783 l -0.06526,0.0783 c -0.05221,0.0783 -0.117475,0.11747 -0.195792,0.11747 h -2.401715 c -0.195792,0 -0.365479,0.0653 -0.522112,0.20885 -0.143581,0.14358 -0.208845,0.31326 -0.208845,0.50906 z m 3.158778,-2.21898 v -0.0653 c 0,-0.0914 0.03916,-0.13053 0.130528,-0.13053 h 5.195014 c 0.09137,0 0.130528,0.0392 0.130528,0.13053 v 0.0653 c 0,0.0914 -0.03916,0.13053 -0.130528,0.13053 h -5.195014 c -0.09137,0 -0.130528,-0.0392 -0.130528,-0.13053 z m 0,-1.31833 v -0.0653 c 0,-0.0914 0.03916,-0.13052 0.130528,-0.13052 h 5.195014 c 0.09137,0 0.130528,0.0392 0.130528,0.13052 v 0.0653 c 0,0.0914 -0.03916,0.13053 -0.130528,0.13053 h -5.195014 c -0.09137,0 -0.130528,-0.0392 -0.130528,-0.13053 z m 0.352425,4.96006 c 0,-0.0261 0,-0.0392 0.01305,-0.0522 0.23495,-0.18274 0.430742,-0.36548 0.600429,-0.54822 0.06526,-0.0653 0.130528,-0.0914 0.221897,-0.0914 h 3.11962 c 0.09137,0 0.156633,0.0261 0.221897,0.0914 0.208845,0.24801 0.378531,0.43074 0.509059,0.53517 0.01305,0.0131 0.01305,0.0392 0.01305,0.0653 -0.01305,0.0131 -0.03916,0.0261 -0.05221,0.0261 h -1.670758 c -0.03916,0 -0.05221,-0.0261 -0.03916,-0.0653 0.01305,-0.13053 -0.01305,-0.248 -0.104422,-0.33937 -0.07832,-0.0914 -0.182739,-0.14358 -0.32632,-0.14358 h -0.809274 c -0.130528,0 -0.261056,0.0522 -0.378531,0.14358 -0.104422,0.0914 -0.169686,0.19579 -0.195792,0.33937 0,0.0392 -0.02611,0.0653 -0.07832,0.0653 h -1.005065 z"
         style="font-weight:bold;font-size:13.0528px;font-family:'Corporate Logo Rounded ver2';-inkscape-font-specification:'Corporate Logo Rounded ver2 Bold';text-align:center;text-anchor:middle"
         id="path895" />
      <path
         d="m 71.388521,118.25755 h 1.892656 c 0.09137,0 0.130528,0.0392 0.130528,0.11747 v 0.11748 c 0,0.0914 -0.03916,0.13053 -0.130528,0.13053 h -1.892656 c -0.09137,0 -0.130528,-0.0392 -0.130528,-0.13053 v -0.11748 c 0,-0.0783 0.03916,-0.11747 0.130528,-0.11747 z m -3.367622,2.88467 c 0,0.20884 0.07832,0.37853 0.221897,0.52211 0.143581,0.14358 0.32632,0.2219 0.522112,0.2219 h 2.584455 c 0.01305,0 0.02611,0 0.02611,0.0131 0.01305,0.013 0,0.0261 -0.01305,0.0392 -0.83538,0.37853 -1.788234,0.7179 -2.871616,0.99201 -0.208845,0.0522 -0.352426,0.18274 -0.41769,0.37853 -0.02611,0.0783 -0.03916,0.14358 -0.03916,0.20885 0,0.13052 0.03916,0.248 0.130528,0.36547 0.182739,0.24801 0.404636,0.41769 0.678745,0.50906 0.143581,0.0522 0.300215,0.0783 0.443795,0.0783 0.117476,0 0.248004,-0.0261 0.378532,-0.0783 1.148646,-0.37853 2.218976,-0.90064 3.210988,-1.54023 0.01305,-0.0131 0.03916,-0.0131 0.06526,0 0.02611,0.0131 0.03916,0.0261 0.03916,0.0653 v 0.86148 c 0,0.27411 0.09137,0.49601 0.274109,0.67875 0.195792,0.18274 0.430742,0.27411 0.678745,0.27411 0.261056,0 0.482954,-0.0914 0.665693,-0.27411 0.182739,-0.18274 0.274109,-0.40464 0.274109,-0.67875 v -0.92675 c 0,-0.0392 0.01305,-0.0522 0.03916,-0.0653 0.01305,-0.013 0.03916,-0.013 0.06526,0 1.005066,0.65264 2.04929,1.17475 3.145725,1.56633 0.130528,0.0522 0.261056,0.0783 0.391584,0.0783 0.143581,0 0.274109,-0.0261 0.41769,-0.0783 0.248003,-0.0914 0.4699,-0.248 0.665692,-0.496 0.07832,-0.10442 0.117476,-0.2219 0.117476,-0.35243 0,-0.0914 -0.01305,-0.15663 -0.02611,-0.20884 -0.06526,-0.19579 -0.208845,-0.32632 -0.404637,-0.37853 -0.952854,-0.24801 -1.853497,-0.57433 -2.688877,-0.97896 -0.01305,0 -0.02611,-0.0131 -0.01305,-0.0261 0,-0.013 0.01305,-0.0261 0.02611,-0.0261 h 2.545296 c 0.195792,0 0.378531,-0.0783 0.522112,-0.2219 0.143581,-0.14358 0.221898,-0.31327 0.221898,-0.52211 0,-0.2219 -0.07832,-0.39159 -0.221898,-0.53517 -0.143581,-0.14358 -0.313267,-0.20884 -0.522112,-0.20884 h -4.15079 c -0.09137,0 -0.130528,-0.0392 -0.130528,-0.13053 v -0.10442 c 0,-0.0914 0.03916,-0.13053 0.130528,-0.13053 h 3.837523 c 0.195792,0 0.365478,-0.0653 0.496006,-0.20885 0.143581,-0.13053 0.208845,-0.30021 0.208845,-0.496 0,-0.1958 -0.06526,-0.36548 -0.208845,-0.49601 -0.130528,-0.14358 -0.300214,-0.20884 -0.496006,-0.20884 h -3.49815 c -0.07832,0 -0.117476,-0.0392 -0.117476,-0.13053 v -0.11748 c 0,-0.0783 0.03916,-0.11747 0.117476,-0.11747 h 2.584454 c 0.169686,0 0.313267,-0.0653 0.41769,-0.18274 0.117475,-0.10442 0.182739,-0.24801 0.182739,-0.41769 0,-0.15664 -0.06526,-0.30022 -0.182739,-0.41769 -0.09137,-0.11748 -0.234951,-0.18274 -0.41769,-0.18274 H 75.34352 c -0.07832,0 -0.117476,-0.0392 -0.117476,-0.13053 v -0.11747 c 0,-0.0783 0.03916,-0.11748 0.117476,-0.11748 h 2.584454 c 0.169686,0 0.313267,-0.0653 0.41769,-0.18274 0.117475,-0.10442 0.182739,-0.248 0.182739,-0.41769 0,-0.14358 -0.06526,-0.28716 -0.182739,-0.43074 -0.104423,-0.11748 -0.248004,-0.16969 -0.41769,-0.16969 H 75.34352 c -0.07832,0 -0.117476,-0.0392 -0.117476,-0.13052 v -0.0914 c 0,-0.0914 0.03916,-0.13053 0.117476,-0.13053 h 3.184883 c 0.195792,0 0.365478,-0.0653 0.509059,-0.20885 0.143581,-0.14358 0.208845,-0.31326 0.208845,-0.52211 0,-0.19579 -0.06526,-0.36548 -0.208845,-0.50906 -0.143581,-0.14358 -0.313267,-0.20884 -0.509059,-0.20884 h -2.832458 c -0.02611,0 -0.05221,-0.0131 -0.06526,-0.0392 -0.01305,-0.0261 -0.01305,-0.0522 0,-0.0653 l 0.03916,-0.0653 c 0.07832,-0.11747 0.117475,-0.23495 0.117475,-0.35243 0,-0.11747 -0.02611,-0.20884 -0.07832,-0.30021 -0.117475,-0.2219 -0.300214,-0.36548 -0.56127,-0.40464 l -0.156634,-0.0131 c -0.248003,0 -0.482954,0.0783 -0.704851,0.2219 -0.261056,0.15663 -0.456848,0.39158 -0.587376,0.6918 l -0.09137,0.20884 c -0.03916,0.0783 -0.09137,0.11748 -0.182739,0.11748 h -1.21391 c -0.01305,0 -0.03916,-0.0131 -0.05221,-0.0261 -0.01305,-0.0261 -0.01305,-0.0522 0,-0.0783 l 0.02611,-0.0391 c 0.07832,-0.11748 0.117475,-0.23495 0.117475,-0.35243 0,-0.0914 -0.01305,-0.19579 -0.05221,-0.28716 -0.117475,-0.2219 -0.287162,-0.35243 -0.509059,-0.39159 -0.104423,-0.013 -0.195792,-0.0261 -0.261056,-0.0261 -0.195792,0 -0.378531,0.0392 -0.561271,0.11747 -0.274108,0.11748 -0.496006,0.30022 -0.665692,0.54822 -0.561271,0.78317 -1.187805,1.44886 -1.866551,2.01013 -0.182739,0.15664 -0.274109,0.35243 -0.274109,0.58738 0,0.2219 0.07832,0.41769 0.234951,0.57432 0.117475,0.10442 0.208845,0.18274 0.261056,0.24801 0.104422,0.11747 0.23495,0.18273 0.391584,0.19579 l 0.06526,0.013 c 0.130528,0 0.248003,-0.0392 0.352425,-0.11747 0.01305,-0.0131 0.02611,-0.0131 0.03916,-0.0131 0.01305,0 0.01305,0.0131 0.01305,0.0392 v 2.23203 c 0,0.30021 0.104422,0.56127 0.32632,0.78317 0.221897,0.2219 0.482953,0.32632 0.783168,0.32632 h 2.271187 c 0.09137,0 0.130528,0.0392 0.130528,0.13053 v 0.10442 c 0,0.0914 -0.03916,0.13053 -0.130528,0.13053 h -4.085527 c -0.208844,0 -0.378531,0.0653 -0.522112,0.20884 -0.14358,0.14358 -0.221897,0.31327 -0.221897,0.53517 z m 3.237094,-4.21606 v -0.11747 c 0,-0.0783 0.03916,-0.11748 0.130528,-0.11748 h 1.892656 c 0.09137,0 0.130528,0.0392 0.130528,0.11748 v 0.11747 c 0,0.0914 -0.03916,0.13053 -0.130528,0.13053 h -1.892656 c -0.09137,0 -0.130528,-0.0392 -0.130528,-0.13053 z m 0,-1.56633 v -0.0914 c 0,-0.0914 0.03916,-0.13053 0.130528,-0.13053 h 1.892656 c 0.09137,0 0.130528,0.0392 0.130528,0.13053 v 0.0914 c 0,0.0914 -0.03916,0.13052 -0.130528,0.13052 h -1.892656 c -0.09137,0 -0.130528,-0.0392 -0.130528,-0.13052 z"
         style="font-weight:bold;font-size:13.0528px;font-family:'Corporate Logo Rounded ver2';-inkscape-font-specification:'Corporate Logo Rounded ver2 Bold';text-align:center;text-anchor:middle"
         id="path897" />
      <path
         d="m 87.991683,118.76661 v -2.19287 c 0,-0.0914 0.03916,-0.13053 0.130528,-0.13053 h 2.258134 c 0.09137,0 0.130528,0.0392 0.130528,0.13053 v 2.19287 c 0,0.0783 -0.03916,0.11747 -0.130528,0.11747 h -2.258134 c -0.09137,0 -0.130528,-0.0392 -0.130528,-0.11747 z m -6.421978,1.70991 c 0,0.26106 0.09137,0.48296 0.274109,0.6657 0.195792,0.19579 0.41769,0.28716 0.678746,0.28716 h 0.352425 c 0.169687,0 0.313268,-0.0653 0.41769,-0.18274 0.117475,-0.11748 0.182739,-0.26106 0.182739,-0.43074 0,-0.0392 0.02611,-0.0653 0.06526,-0.0653 h 2.310346 c 0.09137,0 0.130528,0.0392 0.130528,0.13053 v 2.85856 c 0,0.27411 0.09137,0.50906 0.287161,0.70485 0.195792,0.1958 0.443796,0.30022 0.717904,0.30022 0.274109,0 0.522112,-0.10442 0.717904,-0.30022 0.195792,-0.19579 0.287162,-0.43074 0.287162,-0.70485 v -2.85856 c 0,-0.0914 0.03916,-0.13053 0.130528,-0.13053 h 2.323398 c 0.03916,0 0.06526,0.0261 0.06526,0.0653 0,0.15663 0.05221,0.28716 0.156634,0.39158 0.117475,0.10442 0.261056,0.15663 0.404637,0.15663 h 0.443795 c 0.261056,0 0.496006,-0.10442 0.691798,-0.30021 0.195792,-0.18274 0.300215,-0.41769 0.300215,-0.6918 v -4.68595 c 0,-0.30022 -0.104423,-0.56128 -0.32632,-0.78317 -0.234951,-0.2219 -0.496007,-0.32632 -0.783168,-0.32632 h -3.276253 c -0.09137,0 -0.130528,-0.0392 -0.130528,-0.11748 v -1.10949 c 0,-0.2741 -0.09137,-0.52211 -0.287162,-0.7179 -0.195792,-0.19579 -0.430742,-0.28716 -0.717904,-0.28716 -0.287161,0 -0.522112,0.0914 -0.717904,0.28716 -0.195792,0.19579 -0.287161,0.4438 -0.287161,0.7179 v 1.10949 c 0,0.0783 -0.03916,0.11748 -0.130528,0.11748 h -3.171831 c -0.287161,0 -0.548217,0.10442 -0.783168,0.32632 -0.221897,0.22189 -0.32632,0.48295 -0.32632,0.78317 z m 1.905709,-1.70991 v -2.19287 c 0,-0.0914 0.03916,-0.13053 0.117475,-0.13053 h 2.258135 c 0.09137,0 0.130528,0.0392 0.130528,0.13053 v 2.19287 c 0,0.0783 -0.03916,0.11747 -0.130528,0.11747 h -2.258135 c -0.07832,0 -0.117475,-0.0392 -0.117475,-0.11747 z"
         style="font-weight:bold;font-size:13.0528px;font-family:'Corporate Logo Rounded ver2';-inkscape-font-specification:'Corporate Logo Rounded ver2 Bold';text-align:center;text-anchor:middle"
         id="path899" />
    </g>
  </g>
</svg>
